<svg width="24" height="14" viewBox="0 0 24 14" fill="none" xmlns="http://www.w3.org/2000/svg">
<g clip-path="url(#clip0)">
<path d="M6.50031 11.9999H4.50016C4.22406 11.9999 4 11.7758 4 11.4997C4 11.2236 4.22406 10.9996 4.50016 10.9996H6.50031C6.77641 10.9996 7.00047 11.2236 7.00047 11.4997C7 11.7758 6.77594 11.9999 6.50031 11.9999Z" fill="black"/>
<path d="M22.7491 11.9999H21.4989C21.2229 11.9999 20.9988 11.7758 20.9988 11.4997C20.9988 11.2236 21.2229 10.9996 21.4989 10.9996H22.3338L23.0079 7.40758C22.9989 5.56963 21.4286 3.9998 19.4988 3.9998H16.2157L14.6247 10.9996H17.4986C17.7747 10.9996 17.9988 11.2236 17.9988 11.4997C17.9988 11.7758 17.7747 11.9999 17.4986 11.9999H13.9985C13.8466 11.9999 13.7027 11.931 13.6075 11.8119C13.5124 11.6938 13.4768 11.5377 13.5105 11.39L15.3283 3.38997C15.3803 3.16075 15.5824 2.99997 15.8163 2.99997H19.4993C21.9804 2.99997 23.9993 5.01885 23.9993 7.49992L23.2403 11.5921C23.1963 11.8288 22.99 11.9999 22.7491 11.9999Z" fill="black"/>
<path d="M19.4998 14C18.1217 14 17 12.8792 17 11.5002C17 10.1211 18.1217 8.99991 19.4998 8.99991C20.878 8.99991 21.9997 10.1207 21.9997 11.4997C21.9997 12.8788 20.878 14 19.4998 14ZM19.4998 9.99974C18.673 9.99974 17.9998 10.6729 17.9998 11.4997C17.9998 12.3266 18.673 12.9997 19.4998 12.9997C20.3267 12.9997 20.9998 12.3266 20.9998 11.4997C20.9998 10.6729 20.3267 9.99974 19.4998 9.99974Z" fill="black"/>
<path d="M8.49984 14C7.12172 14 6 12.8792 6 11.5002C6 10.1211 7.12219 8.99991 8.49984 8.99991C9.8775 8.99991 10.9997 10.1207 10.9997 11.4997C10.9997 12.8788 9.87797 14 8.49984 14ZM8.49984 9.99974C7.67297 9.99974 6.99984 10.6729 6.99984 11.4997C6.99984 12.3266 7.67297 12.9997 8.49984 12.9997C9.32672 12.9997 9.99984 12.3266 9.99984 11.4997C9.99984 10.6729 9.32719 9.99974 8.49984 9.99974Z" fill="black"/>
<path d="M6.50047 2.99996H2.50016C2.22406 2.99996 2 2.7759 2 2.49981C2 2.22372 2.22406 1.99966 2.50016 1.99966H6.5C6.77609 1.99966 7.00016 2.22372 7.00016 2.49981C7.00016 2.7759 6.77609 2.99996 6.50047 2.99996Z" fill="black"/>
<path d="M6.50031 5.99994H1.50016C1.22406 5.99994 1 5.77588 1 5.49978C1 5.22369 1.22406 4.99963 1.50016 4.99963H6.50031C6.77641 4.99963 7.00047 5.22369 7.00047 5.49978C7.00047 5.77588 6.77594 5.99994 6.50031 5.99994Z" fill="black"/>
<path d="M6.50016 8.9999H0.500156C0.224063 8.9999 0 8.77584 0 8.49975C0 8.22366 0.224063 7.9996 0.500156 7.9996H6.50016C6.77625 7.9996 7.00031 8.22366 7.00031 8.49975C7.00031 8.77584 6.77578 8.9999 6.50016 8.9999Z" fill="black"/>
<path d="M14.0003 11.9999H10.5002C10.2241 11.9999 10 11.7758 10 11.4997C10 11.2236 10.2241 10.9996 10.5002 10.9996H13.6009L15.873 0.999833H4.50016C4.22406 0.999833 4 0.775773 4 0.499682C4 0.223591 4.22406 0 4.50016 0H16.5002C16.652 0 16.7959 0.0689055 16.8911 0.187967C16.9863 0.30609 17.0219 0.462182 16.9881 0.609837L14.4883 11.6099C14.4362 11.8391 14.2333 11.9999 14.0003 11.9999Z" fill="black"/>
</g>
<defs>
<clipPath id="clip0">
<rect width="24" height="14" fill="white"/>
</clipPath>
</defs>
</svg>
