<svg width="18" height="18" viewBox="0 0 18 18" fill="none" xmlns="http://www.w3.org/2000/svg">
<path d="M14.2318 12.7141C13.0032 12.7141 12.0035 13.7138 12.0035 14.9424C12.0035 16.171 13.0032 17.1707 14.2318 17.1707C15.4604 17.1707 16.4601 16.171 16.4601 14.9424C16.4601 13.7138 15.4604 12.7141 14.2318 12.7141ZM14.2318 15.8335C13.7403 15.8335 13.3403 15.4339 13.3403 14.9421C13.3403 14.4503 13.74 14.0506 14.2318 14.0506C14.7236 14.0506 15.1232 14.4503 15.1232 14.9421C15.1232 15.4339 14.7232 15.8335 14.2318 15.8335Z" fill="white"/>
<path d="M17.8108 4.10191C17.6841 3.93996 17.4901 3.84537 17.2845 3.84537H4.20839L3.60664 1.32809C3.53474 1.02722 3.26598 0.815002 2.95638 0.815002H0.750444C0.381159 0.815002 0.0820312 1.11413 0.0820312 1.48341C0.0820312 1.8527 0.381159 2.15183 0.750444 2.15183H2.42863L4.60106 11.2422C4.67296 11.5431 4.94207 11.7553 5.25132 11.7553H15.6576C15.9648 11.7553 16.2328 11.5459 16.3065 11.2478L17.933 4.67434C17.9826 4.47504 17.9372 4.26387 17.8108 4.10191ZM15.1348 10.4188H5.77942L4.52811 5.18254H16.4304L15.1348 10.4188Z" fill="white"/>
<path d="M6.14312 12.7141C4.9145 12.7141 3.91484 13.7138 3.91484 14.9424C3.91484 16.171 4.9145 17.1707 6.14312 17.1707C7.37174 17.1707 8.3714 16.171 8.3714 14.9424C8.3714 13.7138 7.37174 12.7141 6.14312 12.7141ZM6.14312 15.8335C5.65167 15.8335 5.25167 15.4339 5.25167 14.9421C5.25167 14.4503 5.65132 14.0506 6.14312 14.0506C6.63492 14.0506 7.03457 14.4503 7.03457 14.9421C7.03457 15.4339 6.63457 15.8335 6.14312 15.8335Z" fill="white"/>
</svg>
